<svg width="37" height="37" viewBox="0 0 37 37" fill="none" xmlns="http://www.w3.org/2000/svg">
<path d="M35.15 0.0264587H1.84999C0.828357 0.0264587 0 0.854701 0 1.87645V24.0766C0 25.0983 0.828357 25.9265 1.84999 25.9265H12.3333C14.0355 25.9285 15.4146 27.3078 15.4166 29.0099C15.4136 30.7115 14.035 32.0901 12.3333 32.0931C12.3248 32.0931 12.3179 32.0976 12.3092 32.0982C12.2645 32.1017 12.2202 32.1105 12.1773 32.1247C12.143 32.1313 12.1095 32.1407 12.0768 32.1525C12.0412 32.1719 12.0075 32.1946 11.9762 32.2202C11.9443 32.2408 11.9141 32.2642 11.8863 32.29C11.8634 32.3176 11.8426 32.3471 11.8245 32.3781C11.7981 32.4144 11.7758 32.4535 11.758 32.4946C11.758 32.5021 11.7494 32.5069 11.7469 32.515L10.5136 36.2149C10.4059 36.5382 10.5807 36.8874 10.9038 36.995C10.9671 37.0161 11.0333 37.0267 11.1 37.0265H25.9C26.2405 37.0262 26.5165 36.75 26.5162 36.4094C26.5162 36.3432 26.5056 36.2777 26.4846 36.2149L25.2514 32.515C25.2514 32.5069 25.2428 32.5021 25.2403 32.4946C25.2224 32.4536 25.2001 32.4148 25.1737 32.3787C25.1556 32.3474 25.135 32.3177 25.1119 32.29C25.0841 32.2642 25.0538 32.2408 25.0219 32.2202C24.9906 32.1946 24.9571 32.1719 24.9214 32.1525C24.8887 32.1407 24.855 32.1313 24.8208 32.1247C24.778 32.1107 24.7339 32.1017 24.6889 32.0982C24.6802 32.0982 24.6736 32.0931 24.6649 32.0931C22.9632 32.0901 21.5846 30.7115 21.5816 29.0099C21.5837 27.3078 22.9628 25.9285 24.6649 25.9265H35.15C36.1718 25.9265 37 25.0983 37 24.0766V1.87645C37 0.854701 36.1718 0.0264587 35.15 0.0264587V0.0264587ZM20.35 29.0099C20.3529 31.2173 22.019 33.0681 24.2141 33.3024L25.0441 35.7932H11.956L12.7861 33.3024C14.9811 33.0681 16.6471 31.2176 16.65 29.0099C16.6503 27.8485 16.1808 26.7363 15.3482 25.9265H21.6518C20.8192 26.7363 20.3497 27.8485 20.35 29.0099V29.0099ZM35.7667 24.0766C35.7667 24.4171 35.4906 24.6932 35.15 24.6932H1.84999C1.50937 24.6932 1.23336 24.4171 1.23336 24.0766V22.2266H35.7667V24.0766ZM1.23336 20.9932V1.87645C1.23336 1.53583 1.50937 1.25982 1.84999 1.25982H35.15C35.4906 1.25982 35.7667 1.53583 35.7667 1.87645V20.9932H1.23336Z" fill="#95E1D3"/>
</svg>
