<svg width="37" height="23" viewBox="0 0 37 23" fill="none" xmlns="http://www.w3.org/2000/svg">
<path d="M34.7418 0.766106H28.2368V20.832H26.0702V5.49213H19.5652V20.832H17.3986V1.33802H10.8936V20.832H8.76315V10.0232H2.25823V20.832H0V23H37V20.832H34.7418V0.766106ZM6.59402 12.1912V14.3591H4.42743V12.1912H6.59402ZM4.42743 20.832V16.5271H6.59402V20.832H4.42743ZM15.2294 3.50598V5.67395H13.0628V3.50598H15.2294ZM13.0628 20.832V7.84192H15.2294V20.832H13.0628ZM23.901 7.6601V9.82807H21.7344V7.6601H23.901ZM21.7344 20.832V11.996H23.901V20.832H21.7344ZM32.5726 2.93407V5.10204H30.406V2.93407H32.5726ZM30.406 20.832V7.27001H32.5726V20.832H30.406Z" fill="#95E1D3"/>
</svg>
